<mxfile host="app.diagrams.net" modified="2024-07-11T15:25:02.654Z" agent="Mozilla/5.0 (Windows NT 10.0; Win64; x64) AppleWebKit/537.36 (KHTML, like Gecko) Chrome/126.0.0.0 Safari/537.36" etag="XZrxmoZvnUZBthgAifsA" version="24.6.4" type="google">
  <diagram id="C5RBs43oDa-KdzZeNtuy" name="Page-1">
    <mxGraphModel dx="4014" dy="2827" grid="1" gridSize="10" guides="1" tooltips="1" connect="1" arrows="1" fold="0" page="1" pageScale="1" pageWidth="827" pageHeight="1169" math="0" shadow="0">
      <root>
        <mxCell id="WIyWlLk6GJQsqaUBKTNV-0" />
        <mxCell id="WIyWlLk6GJQsqaUBKTNV-1" parent="WIyWlLk6GJQsqaUBKTNV-0" />
        <mxCell id="mgLGSBt8TyVWv1EkMNAu-0" value="SEMSystem" style="swimlane;fontStyle=1;align=center;verticalAlign=top;childLayout=stackLayout;horizontal=1;startSize=26;horizontalStack=0;resizeParent=1;resizeParentMax=0;resizeLast=0;collapsible=1;marginBottom=0;whiteSpace=wrap;html=1;" parent="WIyWlLk6GJQsqaUBKTNV-1" vertex="1">
          <mxGeometry x="-110" y="29" width="380" height="480" as="geometry" />
        </mxCell>
        <mxCell id="mgLGSBt8TyVWv1EkMNAu-1" value="&lt;div&gt;&lt;span style=&quot;background-color: initial;&quot;&gt;- startTime: LocalDateTime&lt;/span&gt;&lt;br&gt;&lt;/div&gt;&lt;div&gt;- endTime: LocalDateTime&lt;/div&gt;" style="text;strokeColor=none;fillColor=none;align=left;verticalAlign=top;spacingLeft=4;spacingRight=4;overflow=hidden;rotatable=0;points=[[0,0.5],[1,0.5]];portConstraint=eastwest;whiteSpace=wrap;html=1;" parent="mgLGSBt8TyVWv1EkMNAu-0" vertex="1">
          <mxGeometry y="26" width="380" height="84" as="geometry" />
        </mxCell>
        <mxCell id="mgLGSBt8TyVWv1EkMNAu-2" value="" style="line;strokeWidth=1;fillColor=none;align=left;verticalAlign=middle;spacingTop=-1;spacingLeft=3;spacingRight=3;rotatable=0;labelPosition=right;points=[];portConstraint=eastwest;strokeColor=inherit;" parent="mgLGSBt8TyVWv1EkMNAu-0" vertex="1">
          <mxGeometry y="110" width="380" height="8" as="geometry" />
        </mxCell>
        <mxCell id="mgLGSBt8TyVWv1EkMNAu-3" value="&lt;div&gt;+newSEMSystem(LocalDateTime startTime,LocalDateTime endTime)&lt;/div&gt;&lt;div&gt;+ contieneLaPatente(String patente): boolean&lt;/div&gt;+ addZone(Zone): void&lt;div&gt;+ addInspector(Inspector):void&lt;/div&gt;&lt;div&gt;+ addParking(Parking): void&lt;/div&gt;&lt;div&gt;+ endParking(Parking): void&lt;/div&gt;&lt;div&gt;+ addInfraccion(Infraccion infraccion): void&lt;/div&gt;&lt;div&gt;+ inicioDeEstacionamiento(Parking parking): void&lt;/div&gt;&lt;div&gt;+ finDeEstacionamiento(Parking parking): void&lt;/div&gt;&lt;div&gt;+ suscribir(Entidad entidad): void&lt;/div&gt;&lt;div&gt;+ desuscribir(Entidad entidad): void&lt;/div&gt;&lt;div&gt;+ checkZone(Zone zone): boolean&lt;/div&gt;&lt;div&gt;+ checkParking(String patente); boolean&lt;/div&gt;&lt;div&gt;+ issueFine(String patente,Zone zone, Inspector inspector); void&lt;br&gt;&lt;/div&gt;&lt;div&gt;+ checkBalance(String number): double&lt;/div&gt;&lt;div&gt;&lt;span style=&quot;background-color: initial;&quot;&gt;+ endAllParkings():void&lt;/span&gt;&lt;br&gt;&lt;/div&gt;&lt;div&gt;&lt;span style=&quot;background-color: initial;&quot;&gt;+ existeElNumero(String number): boolean&lt;/span&gt;&lt;/div&gt;&lt;div&gt;+ getStartTime(): LocalDateTime&lt;/div&gt;&lt;div&gt;+ getEndTime(): LocalDateTime&lt;/div&gt;&lt;div&gt;+ setStartTime(LocalDateTime startTime): void&lt;/div&gt;&lt;div&gt;+ setEndTime(LocalDateTime endTime): void&lt;/div&gt;&lt;div&gt;+ recargarSaldo(Double monto, String numeroCelular): void&lt;/div&gt;" style="text;strokeColor=none;fillColor=none;align=left;verticalAlign=top;spacingLeft=4;spacingRight=4;overflow=hidden;rotatable=0;points=[[0,0.5],[1,0.5]];portConstraint=eastwest;whiteSpace=wrap;html=1;" parent="mgLGSBt8TyVWv1EkMNAu-0" vertex="1">
          <mxGeometry y="118" width="380" height="362" as="geometry" />
        </mxCell>
        <mxCell id="mgLGSBt8TyVWv1EkMNAu-4" value="Zone" style="swimlane;fontStyle=1;align=center;verticalAlign=top;childLayout=stackLayout;horizontal=1;startSize=26;horizontalStack=0;resizeParent=1;resizeParentMax=0;resizeLast=0;collapsible=1;marginBottom=0;whiteSpace=wrap;html=1;" parent="WIyWlLk6GJQsqaUBKTNV-1" vertex="1">
          <mxGeometry x="620" y="84" width="250" height="200" as="geometry" />
        </mxCell>
        <mxCell id="mgLGSBt8TyVWv1EkMNAu-5" value="- nombre: String&lt;div&gt;- pointsOfSale: List&amp;lt;PointOfSale&amp;gt;&lt;/div&gt;&lt;div&gt;- inspector: Inspector&lt;/div&gt;&lt;div&gt;- parkings: List &amp;lt;Parking&amp;gt;&lt;/div&gt;" style="text;strokeColor=none;fillColor=none;align=left;verticalAlign=top;spacingLeft=4;spacingRight=4;overflow=hidden;rotatable=0;points=[[0,0.5],[1,0.5]];portConstraint=eastwest;whiteSpace=wrap;html=1;" parent="mgLGSBt8TyVWv1EkMNAu-4" vertex="1">
          <mxGeometry y="26" width="250" height="74" as="geometry" />
        </mxCell>
        <mxCell id="mgLGSBt8TyVWv1EkMNAu-6" value="" style="line;strokeWidth=1;fillColor=none;align=left;verticalAlign=middle;spacingTop=-1;spacingLeft=3;spacingRight=3;rotatable=0;labelPosition=right;points=[];portConstraint=eastwest;strokeColor=inherit;" parent="mgLGSBt8TyVWv1EkMNAu-4" vertex="1">
          <mxGeometry y="100" width="250" height="2" as="geometry" />
        </mxCell>
        <mxCell id="mgLGSBt8TyVWv1EkMNAu-7" value="+ agregarPuntoDeVenta(PointOfSale):void&lt;div&gt;+ addInspector(inspector): void&lt;/div&gt;&lt;div&gt;+ agregarParking(Parking): void&lt;/div&gt;&lt;div&gt;+ eliminarParking(Parking): void&lt;/div&gt;&lt;div&gt;&lt;br&gt;&lt;/div&gt;&lt;div&gt;+ getInspector(): Inspector&lt;br&gt;&lt;/div&gt;&lt;div&gt;&lt;br&gt;&lt;/div&gt;" style="text;strokeColor=none;fillColor=none;align=left;verticalAlign=top;spacingLeft=4;spacingRight=4;overflow=hidden;rotatable=0;points=[[0,0.5],[1,0.5]];portConstraint=eastwest;whiteSpace=wrap;html=1;" parent="mgLGSBt8TyVWv1EkMNAu-4" vertex="1">
          <mxGeometry y="102" width="250" height="98" as="geometry" />
        </mxCell>
        <mxCell id="mgLGSBt8TyVWv1EkMNAu-25" value="Inspector" style="swimlane;fontStyle=1;align=center;verticalAlign=top;childLayout=stackLayout;horizontal=1;startSize=26;horizontalStack=0;resizeParent=1;resizeParentMax=0;resizeLast=0;collapsible=1;marginBottom=0;whiteSpace=wrap;html=1;" parent="WIyWlLk6GJQsqaUBKTNV-1" vertex="1">
          <mxGeometry x="640" y="304" width="280" height="220" as="geometry" />
        </mxCell>
        <mxCell id="mgLGSBt8TyVWv1EkMNAu-26" value="- name: String&lt;div&gt;- zone: Zone&lt;/div&gt;" style="text;strokeColor=none;fillColor=none;align=left;verticalAlign=top;spacingLeft=4;spacingRight=4;overflow=hidden;rotatable=0;points=[[0,0.5],[1,0.5]];portConstraint=eastwest;whiteSpace=wrap;html=1;" parent="mgLGSBt8TyVWv1EkMNAu-25" vertex="1">
          <mxGeometry y="26" width="280" height="34" as="geometry" />
        </mxCell>
        <mxCell id="mgLGSBt8TyVWv1EkMNAu-27" value="" style="line;strokeWidth=1;fillColor=none;align=left;verticalAlign=middle;spacingTop=-1;spacingLeft=3;spacingRight=3;rotatable=0;labelPosition=right;points=[];portConstraint=eastwest;strokeColor=inherit;" parent="mgLGSBt8TyVWv1EkMNAu-25" vertex="1">
          <mxGeometry y="60" width="280" height="8" as="geometry" />
        </mxCell>
        <mxCell id="mgLGSBt8TyVWv1EkMNAu-28" value="&lt;div&gt;&lt;br&gt;&lt;/div&gt;&lt;div&gt;&lt;br&gt;&lt;/div&gt;+ checkParking(patente): boolean&lt;div&gt;+ issueFine (patente): void&lt;/div&gt;&lt;div&gt;+ recorrerEstacionamientosDeZona(): void&lt;/div&gt;&lt;div&gt;&lt;br&gt;&lt;/div&gt;" style="text;strokeColor=none;fillColor=none;align=left;verticalAlign=top;spacingLeft=4;spacingRight=4;overflow=hidden;rotatable=0;points=[[0,0.5],[1,0.5]];portConstraint=eastwest;whiteSpace=wrap;html=1;" parent="mgLGSBt8TyVWv1EkMNAu-25" vertex="1">
          <mxGeometry y="68" width="280" height="152" as="geometry" />
        </mxCell>
        <mxCell id="L5RXn9foHuz6_zoTxHpq-0" value="PuntoDeVenta" style="swimlane;fontStyle=1;align=center;verticalAlign=top;childLayout=stackLayout;horizontal=1;startSize=26;horizontalStack=0;resizeParent=1;resizeParentMax=0;resizeLast=0;collapsible=1;marginBottom=0;whiteSpace=wrap;html=1;" parent="WIyWlLk6GJQsqaUBKTNV-1" vertex="1">
          <mxGeometry x="-490" y="509" width="270" height="170" as="geometry" />
        </mxCell>
        <mxCell id="L5RXn9foHuz6_zoTxHpq-1" value="- id: int&lt;div&gt;&lt;/div&gt;" style="text;strokeColor=none;fillColor=none;align=left;verticalAlign=top;spacingLeft=4;spacingRight=4;overflow=hidden;rotatable=0;points=[[0,0.5],[1,0.5]];portConstraint=eastwest;whiteSpace=wrap;html=1;" parent="L5RXn9foHuz6_zoTxHpq-0" vertex="1">
          <mxGeometry y="26" width="270" height="24" as="geometry" />
        </mxCell>
        <mxCell id="L5RXn9foHuz6_zoTxHpq-2" value="" style="line;strokeWidth=1;fillColor=none;align=left;verticalAlign=middle;spacingTop=-1;spacingLeft=3;spacingRight=3;rotatable=0;labelPosition=right;points=[];portConstraint=eastwest;strokeColor=inherit;" parent="L5RXn9foHuz6_zoTxHpq-0" vertex="1">
          <mxGeometry y="50" width="270" height="8" as="geometry" />
        </mxCell>
        <mxCell id="L5RXn9foHuz6_zoTxHpq-3" value="&lt;div&gt;+ venderHorasDeParking(String patente, int horasCompradas): void&lt;div&gt;+ recargarSaldo(Double monto, String numeroDeCelular): void&lt;/div&gt;&lt;div&gt;+ getZona(): Zona&lt;/div&gt;&lt;div&gt;+ getSystem(): SEMSystem&lt;/div&gt;&lt;/div&gt;" style="text;strokeColor=none;fillColor=none;align=left;verticalAlign=top;spacingLeft=4;spacingRight=4;overflow=hidden;rotatable=0;points=[[0,0.5],[1,0.5]];portConstraint=eastwest;whiteSpace=wrap;html=1;" parent="L5RXn9foHuz6_zoTxHpq-0" vertex="1">
          <mxGeometry y="58" width="270" height="112" as="geometry" />
        </mxCell>
        <mxCell id="iXtiVU8ppoAkrKoVN_BJ-0" style="edgeStyle=orthogonalEdgeStyle;rounded=0;orthogonalLoop=1;jettySize=auto;html=1;exitX=1;exitY=0.5;exitDx=0;exitDy=0;" parent="WIyWlLk6GJQsqaUBKTNV-1" source="mgLGSBt8TyVWv1EkMNAu-1" edge="1">
          <mxGeometry relative="1" as="geometry">
            <Array as="points">
              <mxPoint x="400" y="98" />
              <mxPoint x="400" y="140" />
              <mxPoint x="617" y="140" />
            </Array>
            <mxPoint x="617" y="140" as="targetPoint" />
          </mxGeometry>
        </mxCell>
        <mxCell id="0k041Y7NaBg3pEsGJGgo-0" value="zones" style="edgeLabel;html=1;align=center;verticalAlign=middle;resizable=0;points=[];" parent="iXtiVU8ppoAkrKoVN_BJ-0" connectable="0" vertex="1">
          <mxGeometry x="0.2375" y="1" relative="1" as="geometry">
            <mxPoint as="offset" />
          </mxGeometry>
        </mxCell>
        <mxCell id="iXtiVU8ppoAkrKoVN_BJ-1" style="edgeStyle=orthogonalEdgeStyle;rounded=0;orthogonalLoop=1;jettySize=auto;html=1;entryX=-0.016;entryY=0.794;entryDx=0;entryDy=0;entryPerimeter=0;exitX=1.016;exitY=0.197;exitDx=0;exitDy=0;exitPerimeter=0;" parent="WIyWlLk6GJQsqaUBKTNV-1" source="mgLGSBt8TyVWv1EkMNAu-3" target="mgLGSBt8TyVWv1EkMNAu-26" edge="1">
          <mxGeometry relative="1" as="geometry" />
        </mxCell>
        <mxCell id="0k041Y7NaBg3pEsGJGgo-1" value="inspectors" style="edgeLabel;html=1;align=center;verticalAlign=middle;resizable=0;points=[];" parent="iXtiVU8ppoAkrKoVN_BJ-1" connectable="0" vertex="1">
          <mxGeometry x="0.2087" y="1" relative="1" as="geometry">
            <mxPoint as="offset" />
          </mxGeometry>
        </mxCell>
        <mxCell id="iXtiVU8ppoAkrKoVN_BJ-2" style="edgeStyle=orthogonalEdgeStyle;rounded=0;orthogonalLoop=1;jettySize=auto;html=1;entryX=0.5;entryY=0;entryDx=0;entryDy=0;" parent="WIyWlLk6GJQsqaUBKTNV-1" source="mgLGSBt8TyVWv1EkMNAu-3" target="WOSLvKPTSsjKn3iMYD8T-8" edge="1">
          <mxGeometry relative="1" as="geometry">
            <mxPoint x="460" y="505" as="targetPoint" />
            <Array as="points">
              <mxPoint x="320" y="303" />
              <mxPoint x="320" y="505" />
              <mxPoint x="603" y="505" />
            </Array>
          </mxGeometry>
        </mxCell>
        <mxCell id="0k041Y7NaBg3pEsGJGgo-2" value="parkings" style="edgeLabel;html=1;align=center;verticalAlign=middle;resizable=0;points=[];" parent="iXtiVU8ppoAkrKoVN_BJ-2" connectable="0" vertex="1">
          <mxGeometry x="0.6841" relative="1" as="geometry">
            <mxPoint as="offset" />
          </mxGeometry>
        </mxCell>
        <mxCell id="iXtiVU8ppoAkrKoVN_BJ-3" value="*" style="text;strokeColor=none;align=center;fillColor=none;html=1;verticalAlign=middle;whiteSpace=wrap;rounded=0;" parent="WIyWlLk6GJQsqaUBKTNV-1" vertex="1">
          <mxGeometry x="400" y="210" width="60" height="10" as="geometry" />
        </mxCell>
        <mxCell id="iXtiVU8ppoAkrKoVN_BJ-4" value="*" style="text;strokeColor=none;align=center;fillColor=none;html=1;verticalAlign=middle;whiteSpace=wrap;rounded=0;" parent="WIyWlLk6GJQsqaUBKTNV-1" vertex="1">
          <mxGeometry x="409" y="345" width="60" height="10" as="geometry" />
        </mxCell>
        <mxCell id="iXtiVU8ppoAkrKoVN_BJ-5" value="*" style="text;strokeColor=none;align=center;fillColor=none;html=1;verticalAlign=middle;whiteSpace=wrap;rounded=0;" parent="WIyWlLk6GJQsqaUBKTNV-1" vertex="1">
          <mxGeometry x="577" y="673" width="60" height="10" as="geometry" />
        </mxCell>
        <mxCell id="iXtiVU8ppoAkrKoVN_BJ-15" style="edgeStyle=orthogonalEdgeStyle;rounded=0;orthogonalLoop=1;jettySize=auto;html=1;exitX=0.544;exitY=-0.011;exitDx=0;exitDy=0;exitPerimeter=0;" parent="WIyWlLk6GJQsqaUBKTNV-1" source="vT0l0-AlsGoeNOCxv10B-29" target="mgLGSBt8TyVWv1EkMNAu-3" edge="1">
          <mxGeometry relative="1" as="geometry">
            <Array as="points">
              <mxPoint x="80" y="638" />
            </Array>
          </mxGeometry>
        </mxCell>
        <mxCell id="iXtiVU8ppoAkrKoVN_BJ-16" value="system" style="text;strokeColor=none;align=center;fillColor=none;html=1;verticalAlign=middle;whiteSpace=wrap;rounded=0;rotation=-90;" parent="WIyWlLk6GJQsqaUBKTNV-1" vertex="1">
          <mxGeometry x="30" y="560" width="60" height="30" as="geometry" />
        </mxCell>
        <mxCell id="iXtiVU8ppoAkrKoVN_BJ-17" value="1" style="text;strokeColor=none;align=center;fillColor=none;html=1;verticalAlign=middle;whiteSpace=wrap;rounded=0;" parent="WIyWlLk6GJQsqaUBKTNV-1" vertex="1">
          <mxGeometry x="39" y="612" width="60" height="30" as="geometry" />
        </mxCell>
        <mxCell id="WOSLvKPTSsjKn3iMYD8T-8" value="&lt;i&gt;&amp;lt;Abstract&amp;gt;&amp;nbsp;&lt;/i&gt;&lt;div&gt;&lt;i&gt;Parking&lt;/i&gt;&lt;div&gt;&lt;br&gt;&lt;/div&gt;&lt;/div&gt;" style="swimlane;fontStyle=1;align=center;verticalAlign=top;childLayout=stackLayout;horizontal=1;startSize=40;horizontalStack=0;resizeParent=1;resizeParentMax=0;resizeLast=0;collapsible=1;marginBottom=0;whiteSpace=wrap;html=1;" parent="WIyWlLk6GJQsqaUBKTNV-1" vertex="1">
          <mxGeometry x="485" y="690" width="235" height="220" as="geometry" />
        </mxCell>
        <mxCell id="WOSLvKPTSsjKn3iMYD8T-9" value="&lt;div&gt;* licencePlate&lt;span style=&quot;background-color: initial;&quot;&gt;: String&lt;/span&gt;&lt;/div&gt;&lt;div&gt;* horaDeInicio:&amp;nbsp;&lt;span style=&quot;background-color: initial;&quot;&gt;LocalDateTime&lt;/span&gt;&lt;/div&gt;&lt;div&gt;* zona: Zona&lt;/div&gt;" style="text;strokeColor=none;fillColor=none;align=left;verticalAlign=top;spacingLeft=4;spacingRight=4;overflow=hidden;rotatable=0;points=[[0,0.5],[1,0.5]];portConstraint=eastwest;whiteSpace=wrap;html=1;" parent="WOSLvKPTSsjKn3iMYD8T-8" vertex="1">
          <mxGeometry y="40" width="235" height="50" as="geometry" />
        </mxCell>
        <mxCell id="WOSLvKPTSsjKn3iMYD8T-10" value="" style="line;strokeWidth=1;fillColor=none;align=left;verticalAlign=middle;spacingTop=-1;spacingLeft=3;spacingRight=3;rotatable=0;labelPosition=right;points=[];portConstraint=eastwest;strokeColor=inherit;" parent="WOSLvKPTSsjKn3iMYD8T-8" vertex="1">
          <mxGeometry y="90" width="235" height="8" as="geometry" />
        </mxCell>
        <mxCell id="WOSLvKPTSsjKn3iMYD8T-11" value="+ newParking(String patente)&lt;div&gt;&lt;i&gt;+ calcularHorasMaximas(): int&lt;/i&gt;&lt;/div&gt;&lt;div&gt;&lt;i&gt;+ calcularHoraDeFin(): LocalDateTime&lt;/i&gt;&lt;/div&gt;&lt;div&gt;&lt;i&gt;+&lt;/i&gt; getPatente(): String&lt;/div&gt;&lt;div&gt;+ getHoraDeInicio(): LocalDateTime&lt;/div&gt;&lt;div&gt;+ getZona(): Zona&lt;/div&gt;&lt;div&gt;+ setZona(): void&lt;/div&gt;" style="text;strokeColor=none;fillColor=none;align=left;verticalAlign=top;spacingLeft=4;spacingRight=4;overflow=hidden;rotatable=0;points=[[0,0.5],[1,0.5]];portConstraint=eastwest;whiteSpace=wrap;html=1;" parent="WOSLvKPTSsjKn3iMYD8T-8" vertex="1">
          <mxGeometry y="98" width="235" height="122" as="geometry" />
        </mxCell>
        <mxCell id="lDLImrlWDWOufqvbYziE-3" value="Clock" style="swimlane;fontStyle=1;align=center;verticalAlign=top;childLayout=stackLayout;horizontal=1;startSize=26;horizontalStack=0;resizeParent=1;resizeParentMax=0;resizeLast=0;collapsible=1;marginBottom=0;whiteSpace=wrap;html=1;" parent="WIyWlLk6GJQsqaUBKTNV-1" vertex="1">
          <mxGeometry x="-430" y="-195" width="200" height="180" as="geometry" />
        </mxCell>
        <mxCell id="lDLImrlWDWOufqvbYziE-4" value="- currentTime: LocalDateTime" style="text;strokeColor=none;fillColor=none;align=left;verticalAlign=top;spacingLeft=4;spacingRight=4;overflow=hidden;rotatable=0;points=[[0,0.5],[1,0.5]];portConstraint=eastwest;whiteSpace=wrap;html=1;" parent="lDLImrlWDWOufqvbYziE-3" vertex="1">
          <mxGeometry y="26" width="200" height="26" as="geometry" />
        </mxCell>
        <mxCell id="lDLImrlWDWOufqvbYziE-5" value="" style="line;strokeWidth=1;fillColor=none;align=left;verticalAlign=middle;spacingTop=-1;spacingLeft=3;spacingRight=3;rotatable=0;labelPosition=right;points=[];portConstraint=eastwest;strokeColor=inherit;" parent="lDLImrlWDWOufqvbYziE-3" vertex="1">
          <mxGeometry y="52" width="200" height="8" as="geometry" />
        </mxCell>
        <mxCell id="lDLImrlWDWOufqvbYziE-6" value="+ getCurrentTime(): LocalDateTime&lt;div&gt;* advanceMinutes(int minutes):&amp;nbsp; LocalDateTime&lt;/div&gt;&lt;div&gt;* advanceHours(int hours): LocalDateTime&amp;nbsp;&lt;/div&gt;&lt;div&gt;* setSpecificTime(LocalDateTime newTime)&lt;/div&gt;" style="text;strokeColor=none;fillColor=none;align=left;verticalAlign=top;spacingLeft=4;spacingRight=4;overflow=hidden;rotatable=0;points=[[0,0.5],[1,0.5]];portConstraint=eastwest;whiteSpace=wrap;html=1;" parent="lDLImrlWDWOufqvbYziE-3" vertex="1">
          <mxGeometry y="60" width="200" height="120" as="geometry" />
        </mxCell>
        <mxCell id="0k041Y7NaBg3pEsGJGgo-4" value="Infraccion" style="swimlane;fontStyle=1;align=center;verticalAlign=top;childLayout=stackLayout;horizontal=1;startSize=26;horizontalStack=0;resizeParent=1;resizeParentMax=0;resizeLast=0;collapsible=1;marginBottom=0;whiteSpace=wrap;html=1;" parent="WIyWlLk6GJQsqaUBKTNV-1" vertex="1">
          <mxGeometry x="560" y="-185" width="220" height="200" as="geometry" />
        </mxCell>
        <mxCell id="0k041Y7NaBg3pEsGJGgo-5" value="&lt;div&gt;- patente: String&lt;/div&gt;- inspector: Inspector&lt;div&gt;- fechaYhora: LocalDateTime&lt;/div&gt;&lt;div&gt;- zona: Zone&lt;/div&gt;" style="text;strokeColor=none;fillColor=none;align=left;verticalAlign=top;spacingLeft=4;spacingRight=4;overflow=hidden;rotatable=0;points=[[0,0.5],[1,0.5]];portConstraint=eastwest;whiteSpace=wrap;html=1;" parent="0k041Y7NaBg3pEsGJGgo-4" vertex="1">
          <mxGeometry y="26" width="220" height="84" as="geometry" />
        </mxCell>
        <mxCell id="0k041Y7NaBg3pEsGJGgo-6" value="" style="line;strokeWidth=1;fillColor=none;align=left;verticalAlign=middle;spacingTop=-1;spacingLeft=3;spacingRight=3;rotatable=0;labelPosition=right;points=[];portConstraint=eastwest;strokeColor=inherit;" parent="0k041Y7NaBg3pEsGJGgo-4" vertex="1">
          <mxGeometry y="110" width="220" height="8" as="geometry" />
        </mxCell>
        <mxCell id="0k041Y7NaBg3pEsGJGgo-7" value="+ method(type): type" style="text;strokeColor=none;fillColor=none;align=left;verticalAlign=top;spacingLeft=4;spacingRight=4;overflow=hidden;rotatable=0;points=[[0,0.5],[1,0.5]];portConstraint=eastwest;whiteSpace=wrap;html=1;" parent="0k041Y7NaBg3pEsGJGgo-4" vertex="1">
          <mxGeometry y="118" width="220" height="82" as="geometry" />
        </mxCell>
        <mxCell id="0k041Y7NaBg3pEsGJGgo-8" style="edgeStyle=orthogonalEdgeStyle;rounded=0;orthogonalLoop=1;jettySize=auto;html=1;exitX=0.897;exitY=-0.01;exitDx=0;exitDy=0;exitPerimeter=0;entryX=-0.014;entryY=0.321;entryDx=0;entryDy=0;entryPerimeter=0;" parent="WIyWlLk6GJQsqaUBKTNV-1" source="mgLGSBt8TyVWv1EkMNAu-0" target="0k041Y7NaBg3pEsGJGgo-5" edge="1">
          <mxGeometry relative="1" as="geometry">
            <Array as="points">
              <mxPoint x="231" y="11" />
              <mxPoint x="230" y="-132" />
            </Array>
            <mxPoint x="530" y="-132" as="targetPoint" />
          </mxGeometry>
        </mxCell>
        <mxCell id="0k041Y7NaBg3pEsGJGgo-9" value="infracciones" style="edgeLabel;html=1;align=center;verticalAlign=middle;resizable=0;points=[];" parent="0k041Y7NaBg3pEsGJGgo-8" connectable="0" vertex="1">
          <mxGeometry x="0.7631" y="1" relative="1" as="geometry">
            <mxPoint x="-86" as="offset" />
          </mxGeometry>
        </mxCell>
        <mxCell id="0k041Y7NaBg3pEsGJGgo-11" style="edgeStyle=orthogonalEdgeStyle;rounded=0;orthogonalLoop=1;jettySize=auto;html=1;" parent="WIyWlLk6GJQsqaUBKTNV-1" source="mgLGSBt8TyVWv1EkMNAu-1" target="lDLImrlWDWOufqvbYziE-6" edge="1">
          <mxGeometry relative="1" as="geometry" />
        </mxCell>
        <mxCell id="22QZDs4GMdse1F4dVPSu-0" style="edgeStyle=orthogonalEdgeStyle;rounded=0;orthogonalLoop=1;jettySize=auto;html=1;entryX=0.915;entryY=0.015;entryDx=0;entryDy=0;entryPerimeter=0;" parent="WIyWlLk6GJQsqaUBKTNV-1" source="mgLGSBt8TyVWv1EkMNAu-5" target="WOSLvKPTSsjKn3iMYD8T-8" edge="1">
          <mxGeometry relative="1" as="geometry">
            <Array as="points">
              <mxPoint x="1040" y="153" />
              <mxPoint x="1040" y="570" />
              <mxPoint x="700" y="570" />
            </Array>
            <mxPoint x="618.9000000000001" y="591.5540000000001" as="targetPoint" />
          </mxGeometry>
        </mxCell>
        <mxCell id="22QZDs4GMdse1F4dVPSu-3" value="parkings" style="edgeLabel;html=1;align=center;verticalAlign=middle;resizable=0;points=[];" parent="22QZDs4GMdse1F4dVPSu-0" vertex="1" connectable="0">
          <mxGeometry x="-0.8815" y="-2" relative="1" as="geometry">
            <mxPoint x="36" y="-3" as="offset" />
          </mxGeometry>
        </mxCell>
        <mxCell id="22QZDs4GMdse1F4dVPSu-1" value="*" style="text;html=1;align=center;verticalAlign=middle;resizable=0;points=[];autosize=1;strokeColor=none;fillColor=none;" parent="WIyWlLk6GJQsqaUBKTNV-1" vertex="1">
          <mxGeometry x="677" y="666" width="30" height="30" as="geometry" />
        </mxCell>
        <mxCell id="K-bu-fXchgahc0BwXCOe-7" style="edgeStyle=orthogonalEdgeStyle;rounded=0;orthogonalLoop=1;jettySize=auto;html=1;endArrow=none;endFill=0;" parent="WIyWlLk6GJQsqaUBKTNV-1" edge="1">
          <mxGeometry relative="1" as="geometry">
            <mxPoint x="600" y="1010" as="targetPoint" />
            <Array as="points">
              <mxPoint x="800" y="1010" />
              <mxPoint x="670" y="1010" />
            </Array>
            <mxPoint x="800" y="1050" as="sourcePoint" />
          </mxGeometry>
        </mxCell>
        <mxCell id="K-bu-fXchgahc0BwXCOe-22" style="edgeStyle=orthogonalEdgeStyle;rounded=0;orthogonalLoop=1;jettySize=auto;html=1;endArrow=classic;endFill=1;entryX=0.977;entryY=0.012;entryDx=0;entryDy=0;entryPerimeter=0;" parent="WIyWlLk6GJQsqaUBKTNV-1" source="K-bu-fXchgahc0BwXCOe-8" target="mgLGSBt8TyVWv1EkMNAu-1" edge="1">
          <mxGeometry relative="1" as="geometry">
            <mxPoint x="890" y="40" as="targetPoint" />
            <Array as="points">
              <mxPoint x="1350" y="1025" />
              <mxPoint x="1350" y="56" />
            </Array>
          </mxGeometry>
        </mxCell>
        <mxCell id="zvI14GkoaECBwEuB8T-m-15" style="edgeStyle=orthogonalEdgeStyle;rounded=0;orthogonalLoop=1;jettySize=auto;html=1;entryX=0.5;entryY=0;entryDx=0;entryDy=0;" parent="WIyWlLk6GJQsqaUBKTNV-1" source="K-bu-fXchgahc0BwXCOe-8" target="zvI14GkoaECBwEuB8T-m-3" edge="1">
          <mxGeometry relative="1" as="geometry" />
        </mxCell>
        <mxCell id="K-bu-fXchgahc0BwXCOe-8" value="UserApp" style="swimlane;fontStyle=1;align=center;verticalAlign=top;childLayout=stackLayout;horizontal=1;startSize=26;horizontalStack=0;resizeParent=1;resizeParentMax=0;resizeLast=0;collapsible=1;marginBottom=0;whiteSpace=wrap;html=1;" parent="WIyWlLk6GJQsqaUBKTNV-1" vertex="1">
          <mxGeometry x="1090" y="880" width="210" height="290" as="geometry" />
        </mxCell>
        <mxCell id="K-bu-fXchgahc0BwXCOe-9" value="- numeroAsociado: String&lt;div&gt;- patentePredeterminada: String&lt;/div&gt;&lt;div&gt;- notificacionesActivas: Bool&lt;/div&gt;" style="text;strokeColor=none;fillColor=none;align=left;verticalAlign=top;spacingLeft=4;spacingRight=4;overflow=hidden;rotatable=0;points=[[0,0.5],[1,0.5]];portConstraint=eastwest;whiteSpace=wrap;html=1;" parent="K-bu-fXchgahc0BwXCOe-8" vertex="1">
          <mxGeometry y="26" width="210" height="54" as="geometry" />
        </mxCell>
        <mxCell id="K-bu-fXchgahc0BwXCOe-10" value="" style="line;strokeWidth=1;fillColor=none;align=left;verticalAlign=middle;spacingTop=-1;spacingLeft=3;spacingRight=3;rotatable=0;labelPosition=right;points=[];portConstraint=eastwest;strokeColor=inherit;" parent="K-bu-fXchgahc0BwXCOe-8" vertex="1">
          <mxGeometry y="80" width="210" height="20" as="geometry" />
        </mxCell>
        <mxCell id="K-bu-fXchgahc0BwXCOe-11" value="+ iniciarParking(String patente): void&lt;div&gt;&lt;span style=&quot;background-color: initial;&quot;&gt;+ finalizarParking(): void&lt;/span&gt;&lt;div&gt;+ zonaActual(): Zona&lt;/div&gt;&lt;/div&gt;&lt;div&gt;+ consultarSaldo(): double&lt;/div&gt;&lt;div&gt;+ getSistemaCentral(): SEMSystem&lt;/div&gt;&lt;div&gt;+ getNumeroAsociado(): String&lt;/div&gt;&lt;div&gt;&lt;i&gt;+ driving(): void&lt;/i&gt;&lt;/div&gt;&lt;div&gt;&lt;i&gt;+ walking(): void&lt;/i&gt;&lt;/div&gt;&lt;div&gt;&lt;i&gt;+ setModo(): void&amp;nbsp;&lt;/i&gt;&lt;/div&gt;&lt;div&gt;&lt;i&gt;+ getModo(): Modo&lt;/i&gt;&lt;/div&gt;&lt;div&gt;&lt;i&gt;+ getPatentePredeterminada(): String&lt;/i&gt;&lt;/div&gt;&lt;div&gt;&lt;i&gt;+ setPatentePredeterminada(): void&lt;/i&gt;&lt;/div&gt;" style="text;strokeColor=none;fillColor=none;align=left;verticalAlign=top;spacingLeft=4;spacingRight=4;overflow=hidden;rotatable=0;points=[[0,0.5],[1,0.5]];portConstraint=eastwest;whiteSpace=wrap;html=1;" parent="K-bu-fXchgahc0BwXCOe-8" vertex="1">
          <mxGeometry y="100" width="210" height="190" as="geometry" />
        </mxCell>
        <mxCell id="K-bu-fXchgahc0BwXCOe-21" value="1" style="text;strokeColor=none;align=center;fillColor=none;html=1;verticalAlign=middle;whiteSpace=wrap;rounded=0;" parent="WIyWlLk6GJQsqaUBKTNV-1" vertex="1">
          <mxGeometry x="251" y="44" width="60" height="10" as="geometry" />
        </mxCell>
        <mxCell id="K-bu-fXchgahc0BwXCOe-23" value="sistemaCentral" style="text;strokeColor=none;align=center;fillColor=none;html=1;verticalAlign=middle;whiteSpace=wrap;rounded=0;rotation=90;" parent="WIyWlLk6GJQsqaUBKTNV-1" vertex="1">
          <mxGeometry x="1170" y="530" width="60" height="30" as="geometry" />
        </mxCell>
        <mxCell id="K-bu-fXchgahc0BwXCOe-26" value="&lt;span style=&quot;text-align: left;&quot;&gt;1&lt;/span&gt;" style="text;strokeColor=none;align=center;fillColor=none;html=1;verticalAlign=middle;whiteSpace=wrap;rounded=0;" parent="WIyWlLk6GJQsqaUBKTNV-1" vertex="1">
          <mxGeometry x="1043" y="994.5" width="60" height="30" as="geometry" />
        </mxCell>
        <mxCell id="K-bu-fXchgahc0BwXCOe-27" style="edgeStyle=orthogonalEdgeStyle;rounded=0;orthogonalLoop=1;jettySize=auto;html=1;entryX=-0.006;entryY=0.125;entryDx=0;entryDy=0;entryPerimeter=0;" parent="WIyWlLk6GJQsqaUBKTNV-1" target="mgLGSBt8TyVWv1EkMNAu-3" edge="1">
          <mxGeometry relative="1" as="geometry">
            <mxPoint x="-365" y="510" as="sourcePoint" />
          </mxGeometry>
        </mxCell>
        <mxCell id="K-bu-fXchgahc0BwXCOe-28" value="&lt;span style=&quot;text-align: left;&quot;&gt;system:&amp;nbsp;&lt;/span&gt;" style="text;strokeColor=none;align=center;fillColor=none;html=1;verticalAlign=middle;whiteSpace=wrap;rounded=0;rotation=-90;" parent="WIyWlLk6GJQsqaUBKTNV-1" vertex="1">
          <mxGeometry x="-240" y="325" width="60" height="30" as="geometry" />
        </mxCell>
        <mxCell id="K-bu-fXchgahc0BwXCOe-29" value="1" style="text;strokeColor=none;align=center;fillColor=none;html=1;verticalAlign=middle;whiteSpace=wrap;rounded=0;" parent="WIyWlLk6GJQsqaUBKTNV-1" vertex="1">
          <mxGeometry x="-161" y="164" width="60" height="30" as="geometry" />
        </mxCell>
        <mxCell id="ghbbSeFrnHt1oZvLhiW2-1" value="«interface»&lt;br&gt;&lt;b&gt;MovementSensor&lt;/b&gt;&lt;div&gt;&lt;b&gt;&lt;br&gt;&lt;/b&gt;&lt;/div&gt;&lt;div&gt;&lt;b&gt;+ driving(): void&lt;/b&gt;&lt;/div&gt;&lt;div&gt;&lt;b&gt;+ walking(): void&lt;/b&gt;&lt;/div&gt;" style="html=1;whiteSpace=wrap;" parent="WIyWlLk6GJQsqaUBKTNV-1" vertex="1">
          <mxGeometry x="1600" y="690" width="230" height="90" as="geometry" />
        </mxCell>
        <mxCell id="ghbbSeFrnHt1oZvLhiW2-3" value="" style="endArrow=block;dashed=1;endFill=0;endSize=12;html=1;rounded=0;entryX=0;entryY=0.5;entryDx=0;entryDy=0;exitX=1;exitY=0;exitDx=0;exitDy=0;" parent="WIyWlLk6GJQsqaUBKTNV-1" source="K-bu-fXchgahc0BwXCOe-8" target="ghbbSeFrnHt1oZvLhiW2-1" edge="1">
          <mxGeometry width="160" relative="1" as="geometry">
            <mxPoint x="1290" y="870" as="sourcePoint" />
            <mxPoint x="1220" y="930" as="targetPoint" />
          </mxGeometry>
        </mxCell>
        <mxCell id="ghbbSeFrnHt1oZvLhiW2-4" value="«interface»&lt;br&gt;&lt;b&gt;ModoDeOperacion&lt;/b&gt;&lt;div&gt;&lt;b&gt;&lt;br&gt;&lt;/b&gt;&lt;div&gt;&lt;b&gt;&lt;i&gt;+ driving(): void&lt;/i&gt;&lt;/b&gt;&lt;/div&gt;&lt;/div&gt;&lt;div&gt;&lt;b&gt;&lt;i&gt;&amp;nbsp;+ walking():void&lt;/i&gt;&amp;nbsp;&lt;/b&gt;&lt;/div&gt;" style="html=1;whiteSpace=wrap;" parent="WIyWlLk6GJQsqaUBKTNV-1" vertex="1">
          <mxGeometry x="1740" y="920" width="270" height="127" as="geometry" />
        </mxCell>
        <mxCell id="ghbbSeFrnHt1oZvLhiW2-6" value="Manual" style="swimlane;fontStyle=1;align=center;verticalAlign=top;childLayout=stackLayout;horizontal=1;startSize=26;horizontalStack=0;resizeParent=1;resizeParentMax=0;resizeLast=0;collapsible=1;marginBottom=0;whiteSpace=wrap;html=1;" parent="WIyWlLk6GJQsqaUBKTNV-1" vertex="1">
          <mxGeometry x="1670" y="1151" width="160" height="74" as="geometry" />
        </mxCell>
        <mxCell id="ghbbSeFrnHt1oZvLhiW2-8" value="" style="line;strokeWidth=1;fillColor=none;align=left;verticalAlign=middle;spacingTop=-1;spacingLeft=3;spacingRight=3;rotatable=0;labelPosition=right;points=[];portConstraint=eastwest;strokeColor=inherit;" parent="ghbbSeFrnHt1oZvLhiW2-6" vertex="1">
          <mxGeometry y="26" width="160" height="8" as="geometry" />
        </mxCell>
        <mxCell id="ghbbSeFrnHt1oZvLhiW2-9" value="&lt;i&gt;+ driving(): void&lt;/i&gt;&lt;div&gt;&lt;i&gt;+ walking(): void&lt;/i&gt;&lt;/div&gt;" style="text;strokeColor=none;fillColor=none;align=left;verticalAlign=top;spacingLeft=4;spacingRight=4;overflow=hidden;rotatable=0;points=[[0,0.5],[1,0.5]];portConstraint=eastwest;whiteSpace=wrap;html=1;" parent="ghbbSeFrnHt1oZvLhiW2-6" vertex="1">
          <mxGeometry y="34" width="160" height="40" as="geometry" />
        </mxCell>
        <mxCell id="ghbbSeFrnHt1oZvLhiW2-10" value="Automatico" style="swimlane;fontStyle=1;align=center;verticalAlign=top;childLayout=stackLayout;horizontal=1;startSize=26;horizontalStack=0;resizeParent=1;resizeParentMax=0;resizeLast=0;collapsible=1;marginBottom=0;whiteSpace=wrap;html=1;" parent="WIyWlLk6GJQsqaUBKTNV-1" vertex="1">
          <mxGeometry x="1950" y="1151" width="160" height="84" as="geometry" />
        </mxCell>
        <mxCell id="ghbbSeFrnHt1oZvLhiW2-12" value="" style="line;strokeWidth=1;fillColor=none;align=left;verticalAlign=middle;spacingTop=-1;spacingLeft=3;spacingRight=3;rotatable=0;labelPosition=right;points=[];portConstraint=eastwest;strokeColor=inherit;" parent="ghbbSeFrnHt1oZvLhiW2-10" vertex="1">
          <mxGeometry y="26" width="160" height="8" as="geometry" />
        </mxCell>
        <mxCell id="ghbbSeFrnHt1oZvLhiW2-13" value="&lt;i&gt;+ driving(): void&lt;/i&gt;&lt;div&gt;&lt;i&gt;+ walking(): void&lt;/i&gt;&lt;/div&gt;" style="text;strokeColor=none;fillColor=none;align=left;verticalAlign=top;spacingLeft=4;spacingRight=4;overflow=hidden;rotatable=0;points=[[0,0.5],[1,0.5]];portConstraint=eastwest;whiteSpace=wrap;html=1;" parent="ghbbSeFrnHt1oZvLhiW2-10" vertex="1">
          <mxGeometry y="34" width="160" height="50" as="geometry" />
        </mxCell>
        <mxCell id="ghbbSeFrnHt1oZvLhiW2-15" value="" style="endArrow=block;dashed=1;endFill=0;endSize=12;html=1;rounded=0;exitX=0.5;exitY=0;exitDx=0;exitDy=0;entryX=0.75;entryY=1;entryDx=0;entryDy=0;" parent="WIyWlLk6GJQsqaUBKTNV-1" source="ghbbSeFrnHt1oZvLhiW2-10" target="ghbbSeFrnHt1oZvLhiW2-4" edge="1">
          <mxGeometry width="160" relative="1" as="geometry">
            <mxPoint x="1560" y="1120" as="sourcePoint" />
            <mxPoint x="1922.5" y="1036.9999999999995" as="targetPoint" />
          </mxGeometry>
        </mxCell>
        <mxCell id="ghbbSeFrnHt1oZvLhiW2-16" value="" style="endArrow=block;dashed=1;endFill=0;endSize=12;html=1;rounded=0;exitX=0.5;exitY=0;exitDx=0;exitDy=0;entryX=0.25;entryY=1;entryDx=0;entryDy=0;" parent="WIyWlLk6GJQsqaUBKTNV-1" source="ghbbSeFrnHt1oZvLhiW2-6" target="ghbbSeFrnHt1oZvLhiW2-4" edge="1">
          <mxGeometry width="160" relative="1" as="geometry">
            <mxPoint x="1560" y="1120" as="sourcePoint" />
            <mxPoint x="1787.5" y="1036.9999999999995" as="targetPoint" />
            <Array as="points">
              <mxPoint x="1750" y="1090" />
            </Array>
          </mxGeometry>
        </mxCell>
        <mxCell id="jS-LZnx_MNtsq0-25Nk4-0" value="1" style="text;html=1;align=center;verticalAlign=middle;resizable=0;points=[];autosize=1;strokeColor=none;fillColor=none;" parent="WIyWlLk6GJQsqaUBKTNV-1" vertex="1">
          <mxGeometry x="-200" y="-112" width="30" height="30" as="geometry" />
        </mxCell>
        <mxCell id="jS-LZnx_MNtsq0-25Nk4-1" value="clock" style="text;html=1;align=center;verticalAlign=middle;resizable=0;points=[];autosize=1;strokeColor=none;fillColor=none;" parent="WIyWlLk6GJQsqaUBKTNV-1" vertex="1">
          <mxGeometry x="-220" y="-70" width="50" height="30" as="geometry" />
        </mxCell>
        <mxCell id="Z0_4AAhZ5r3GB3-nHRg4-2" value="1" style="text;strokeColor=none;align=center;fillColor=none;html=1;verticalAlign=middle;whiteSpace=wrap;rounded=0;" parent="WIyWlLk6GJQsqaUBKTNV-1" vertex="1">
          <mxGeometry x="-407" y="661" width="60" height="10" as="geometry" />
        </mxCell>
        <mxCell id="Z0_4AAhZ5r3GB3-nHRg4-4" value="app" style="edgeLabel;html=1;align=center;verticalAlign=middle;resizable=0;points=[];" parent="WIyWlLk6GJQsqaUBKTNV-1" connectable="0" vertex="1">
          <mxGeometry x="990.0039986023367" y="1110" as="geometry">
            <mxPoint x="2" y="-14" as="offset" />
          </mxGeometry>
        </mxCell>
        <mxCell id="Z0_4AAhZ5r3GB3-nHRg4-5" value="*" style="text;strokeColor=none;align=center;fillColor=none;html=1;verticalAlign=middle;whiteSpace=wrap;rounded=0;" parent="WIyWlLk6GJQsqaUBKTNV-1" vertex="1">
          <mxGeometry x="509" y="-140" width="60" height="10" as="geometry" />
        </mxCell>
        <mxCell id="Etug5irwp47wAe3Y_SpH-2" value="&lt;p style=&quot;margin:0px;margin-top:4px;text-align:center;&quot;&gt;&lt;i&gt;&amp;lt;&amp;lt;Interface&amp;gt;&amp;gt;&lt;/i&gt;&lt;br&gt;&lt;b&gt;NotifyEntidad&lt;/b&gt;&lt;/p&gt;&lt;hr size=&quot;1&quot; style=&quot;border-style:solid;&quot;&gt;&lt;p style=&quot;margin:0px;margin-left:4px;&quot;&gt;+ notificarInicio(): void&lt;/p&gt;&lt;p style=&quot;margin:0px;margin-left:4px;&quot;&gt;+ notificarFin(): void&lt;/p&gt;&lt;p style=&quot;margin:0px;margin-left:4px;&quot;&gt;+ suscribir(SEMSytstem sem): void&lt;/p&gt;&lt;p style=&quot;margin:0px;margin-left:4px;&quot;&gt;+ desuscribir(SEMSystem sem): void&lt;/p&gt;" style="verticalAlign=top;align=left;overflow=fill;html=1;whiteSpace=wrap;" parent="WIyWlLk6GJQsqaUBKTNV-1" vertex="1">
          <mxGeometry x="-75" y="-300" width="215" height="140" as="geometry" />
        </mxCell>
        <mxCell id="CAY9z4f1XWXEPE2ikcJA-0" style="edgeStyle=orthogonalEdgeStyle;rounded=0;orthogonalLoop=1;jettySize=auto;html=1;entryX=0.549;entryY=1.007;entryDx=0;entryDy=0;entryPerimeter=0;" parent="WIyWlLk6GJQsqaUBKTNV-1" source="mgLGSBt8TyVWv1EkMNAu-0" target="Etug5irwp47wAe3Y_SpH-2" edge="1">
          <mxGeometry relative="1" as="geometry" />
        </mxCell>
        <mxCell id="CAY9z4f1XWXEPE2ikcJA-1" value="*" style="text;html=1;align=center;verticalAlign=middle;resizable=0;points=[];autosize=1;strokeColor=none;fillColor=none;" parent="WIyWlLk6GJQsqaUBKTNV-1" vertex="1">
          <mxGeometry x="5" y="-142" width="30" height="30" as="geometry" />
        </mxCell>
        <mxCell id="CAY9z4f1XWXEPE2ikcJA-2" value="entidades" style="text;html=1;align=center;verticalAlign=middle;resizable=0;points=[];autosize=1;strokeColor=none;fillColor=none;" parent="WIyWlLk6GJQsqaUBKTNV-1" vertex="1">
          <mxGeometry x="-5" y="-30" width="80" height="30" as="geometry" />
        </mxCell>
        <mxCell id="uYM8aARRibGc8H-UrKgf-0" style="edgeStyle=orthogonalEdgeStyle;rounded=0;orthogonalLoop=1;jettySize=auto;html=1;entryX=0.489;entryY=1.008;entryDx=0;entryDy=0;entryPerimeter=0;" parent="WIyWlLk6GJQsqaUBKTNV-1" target="WOSLvKPTSsjKn3iMYD8T-11" edge="1">
          <mxGeometry relative="1" as="geometry">
            <Array as="points">
              <mxPoint x="375" y="1010" />
              <mxPoint x="600" y="1010" />
            </Array>
            <mxPoint x="375" y="1050" as="sourcePoint" />
          </mxGeometry>
        </mxCell>
        <mxCell id="uYM8aARRibGc8H-UrKgf-4" style="edgeStyle=orthogonalEdgeStyle;rounded=0;orthogonalLoop=1;jettySize=auto;html=1;entryX=0.005;entryY=0.186;entryDx=0;entryDy=0;entryPerimeter=0;exitX=1.008;exitY=1.015;exitDx=0;exitDy=0;exitPerimeter=0;" parent="WIyWlLk6GJQsqaUBKTNV-1" target="K-bu-fXchgahc0BwXCOe-11" edge="1">
          <mxGeometry relative="1" as="geometry">
            <Array as="points">
              <mxPoint x="1010" y="1143" />
              <mxPoint x="1010" y="1015" />
            </Array>
            <mxPoint x="932.0799999999999" y="1142.9899999999998" as="sourcePoint" />
          </mxGeometry>
        </mxCell>
        <mxCell id="uYM8aARRibGc8H-UrKgf-7" value="&lt;div&gt;&lt;br&gt;&lt;/div&gt;&lt;div&gt;&lt;br&gt;&lt;/div&gt;+ checkParking(patente): boolean&lt;div&gt;+ issueFine (patente): void&lt;/div&gt;&lt;div&gt;+ recorrerEstacionamientosDeZona(): void&lt;/div&gt;&lt;div&gt;&lt;br&gt;&lt;/div&gt;" style="text;strokeColor=none;fillColor=none;align=left;verticalAlign=top;spacingLeft=4;spacingRight=4;overflow=hidden;rotatable=0;points=[[0,0.5],[1,0.5]];portConstraint=eastwest;whiteSpace=wrap;html=1;" parent="WIyWlLk6GJQsqaUBKTNV-1" vertex="1">
          <mxGeometry x="640" y="372" width="280" height="152" as="geometry" />
        </mxCell>
        <mxCell id="uYM8aARRibGc8H-UrKgf-8" style="edgeStyle=orthogonalEdgeStyle;rounded=0;orthogonalLoop=1;jettySize=auto;html=1;entryX=0.996;entryY=0.367;entryDx=0;entryDy=0;entryPerimeter=0;" parent="WIyWlLk6GJQsqaUBKTNV-1" target="mgLGSBt8TyVWv1EkMNAu-7" edge="1">
          <mxGeometry relative="1" as="geometry">
            <Array as="points">
              <mxPoint x="-660" y="570" />
              <mxPoint x="-660" y="-330" />
              <mxPoint x="890" y="-330" />
              <mxPoint x="890" y="222" />
            </Array>
            <mxPoint x="-490" y="570" as="sourcePoint" />
          </mxGeometry>
        </mxCell>
        <mxCell id="uYM8aARRibGc8H-UrKgf-9" value="1" style="text;strokeColor=none;align=center;fillColor=none;html=1;verticalAlign=middle;whiteSpace=wrap;rounded=0;" parent="WIyWlLk6GJQsqaUBKTNV-1" vertex="1">
          <mxGeometry x="869" y="197" width="60" height="30" as="geometry" />
        </mxCell>
        <mxCell id="uYM8aARRibGc8H-UrKgf-10" value="zona" style="text;strokeColor=none;align=center;fillColor=none;html=1;verticalAlign=middle;whiteSpace=wrap;rounded=0;rotation=-90;" parent="WIyWlLk6GJQsqaUBKTNV-1" vertex="1">
          <mxGeometry x="-698" y="299" width="60" height="30" as="geometry" />
        </mxCell>
        <mxCell id="zvI14GkoaECBwEuB8T-m-0" style="edgeStyle=orthogonalEdgeStyle;rounded=0;orthogonalLoop=1;jettySize=auto;html=1;" parent="WIyWlLk6GJQsqaUBKTNV-1" source="K-bu-fXchgahc0BwXCOe-9" target="ghbbSeFrnHt1oZvLhiW2-4" edge="1">
          <mxGeometry relative="1" as="geometry" />
        </mxCell>
        <mxCell id="zvI14GkoaECBwEuB8T-m-1" value="modo" style="edgeLabel;html=1;align=center;verticalAlign=middle;resizable=0;points=[];" parent="WIyWlLk6GJQsqaUBKTNV-1" connectable="0" vertex="1">
          <mxGeometry x="1596.0039986023367" y="1200" as="geometry">
            <mxPoint x="41" y="-218" as="offset" />
          </mxGeometry>
        </mxCell>
        <mxCell id="zvI14GkoaECBwEuB8T-m-2" value="1" style="edgeLabel;html=1;align=center;verticalAlign=middle;resizable=0;points=[];" parent="WIyWlLk6GJQsqaUBKTNV-1" connectable="0" vertex="1">
          <mxGeometry x="1680.0039986023367" y="1188" as="geometry">
            <mxPoint x="41" y="-218" as="offset" />
          </mxGeometry>
        </mxCell>
        <mxCell id="zvI14GkoaECBwEuB8T-m-3" value="&lt;i&gt;&amp;lt;Abstract&amp;gt;&amp;nbsp;&lt;/i&gt;&lt;div&gt;&lt;i&gt;EstadoParking&lt;/i&gt;&lt;div&gt;&lt;br&gt;&lt;/div&gt;&lt;/div&gt;" style="swimlane;fontStyle=1;align=center;verticalAlign=top;childLayout=stackLayout;horizontal=1;startSize=40;horizontalStack=0;resizeParent=1;resizeParentMax=0;resizeLast=0;collapsible=1;marginBottom=0;whiteSpace=wrap;html=1;" parent="WIyWlLk6GJQsqaUBKTNV-1" vertex="1">
          <mxGeometry x="1051.5" y="1318" width="287" height="120" as="geometry" />
        </mxCell>
        <mxCell id="zvI14GkoaECBwEuB8T-m-5" value="" style="line;strokeWidth=1;fillColor=none;align=left;verticalAlign=middle;spacingTop=-1;spacingLeft=3;spacingRight=3;rotatable=0;labelPosition=right;points=[];portConstraint=eastwest;strokeColor=inherit;" parent="zvI14GkoaECBwEuB8T-m-3" vertex="1">
          <mxGeometry y="40" width="287" height="8" as="geometry" />
        </mxCell>
        <mxCell id="zvI14GkoaECBwEuB8T-m-6" value="&lt;i&gt;+ iniciarParking (UserApp app): void&lt;/i&gt;&lt;div&gt;&lt;i&gt;+ finalizarParking(UserApp app): void&lt;/i&gt;&lt;/div&gt;&lt;div&gt;&lt;i&gt;+ &lt;/i&gt;notificarInicioParkingPosible(UserApp app): void&lt;/div&gt;&lt;div&gt;+ notificarFinParkingPosible(UserApp app): void&lt;/div&gt;" style="text;strokeColor=none;fillColor=none;align=left;verticalAlign=top;spacingLeft=4;spacingRight=4;overflow=hidden;rotatable=0;points=[[0,0.5],[1,0.5]];portConstraint=eastwest;whiteSpace=wrap;html=1;" parent="zvI14GkoaECBwEuB8T-m-3" vertex="1">
          <mxGeometry y="48" width="287" height="72" as="geometry" />
        </mxCell>
        <mxCell id="zvI14GkoaECBwEuB8T-m-18" style="edgeStyle=orthogonalEdgeStyle;rounded=0;orthogonalLoop=1;jettySize=auto;html=1;endArrow=none;endFill=0;" parent="WIyWlLk6GJQsqaUBKTNV-1" source="zvI14GkoaECBwEuB8T-m-7" edge="1">
          <mxGeometry relative="1" as="geometry">
            <mxPoint x="1200" y="1510" as="targetPoint" />
            <Array as="points">
              <mxPoint x="971" y="1510" />
              <mxPoint x="1170" y="1510" />
            </Array>
          </mxGeometry>
        </mxCell>
        <mxCell id="zvI14GkoaECBwEuB8T-m-7" value="&lt;div&gt;&lt;i&gt;EstadoParkingVigente&lt;/i&gt;&lt;div&gt;&lt;br&gt;&lt;/div&gt;&lt;/div&gt;" style="swimlane;fontStyle=1;align=center;verticalAlign=top;childLayout=stackLayout;horizontal=1;startSize=30;horizontalStack=0;resizeParent=1;resizeParentMax=0;resizeLast=0;collapsible=1;marginBottom=0;whiteSpace=wrap;html=1;" parent="WIyWlLk6GJQsqaUBKTNV-1" vertex="1">
          <mxGeometry x="827" y="1550" width="287" height="100" as="geometry" />
        </mxCell>
        <mxCell id="zvI14GkoaECBwEuB8T-m-8" value="" style="line;strokeWidth=1;fillColor=none;align=left;verticalAlign=middle;spacingTop=-1;spacingLeft=3;spacingRight=3;rotatable=0;labelPosition=right;points=[];portConstraint=eastwest;strokeColor=inherit;" parent="zvI14GkoaECBwEuB8T-m-7" vertex="1">
          <mxGeometry y="30" width="287" height="8" as="geometry" />
        </mxCell>
        <mxCell id="zvI14GkoaECBwEuB8T-m-9" value="&lt;i&gt;+ iniciarParking (UserApp app): void&lt;/i&gt;&lt;div&gt;&lt;i&gt;+ finalizarParking(UserApp app): void&lt;/i&gt;&lt;/div&gt;&lt;div&gt;&lt;span style=&quot;background-color: initial;&quot;&gt;+ notificarFinParkingPosible(UserApp app): void&lt;/span&gt;&lt;br&gt;&lt;/div&gt;" style="text;strokeColor=none;fillColor=none;align=left;verticalAlign=top;spacingLeft=4;spacingRight=4;overflow=hidden;rotatable=0;points=[[0,0.5],[1,0.5]];portConstraint=eastwest;whiteSpace=wrap;html=1;" parent="zvI14GkoaECBwEuB8T-m-7" vertex="1">
          <mxGeometry y="38" width="287" height="62" as="geometry" />
        </mxCell>
        <mxCell id="zvI14GkoaECBwEuB8T-m-10" value="&lt;div&gt;&lt;i&gt;EstadoParkingNoVigente&lt;/i&gt;&lt;div&gt;&lt;br&gt;&lt;/div&gt;&lt;/div&gt;" style="swimlane;fontStyle=1;align=center;verticalAlign=top;childLayout=stackLayout;horizontal=1;startSize=30;horizontalStack=0;resizeParent=1;resizeParentMax=0;resizeLast=0;collapsible=1;marginBottom=0;whiteSpace=wrap;html=1;" parent="WIyWlLk6GJQsqaUBKTNV-1" vertex="1">
          <mxGeometry x="1241" y="1550" width="287" height="100" as="geometry" />
        </mxCell>
        <mxCell id="zvI14GkoaECBwEuB8T-m-11" value="" style="line;strokeWidth=1;fillColor=none;align=left;verticalAlign=middle;spacingTop=-1;spacingLeft=3;spacingRight=3;rotatable=0;labelPosition=right;points=[];portConstraint=eastwest;strokeColor=inherit;" parent="zvI14GkoaECBwEuB8T-m-10" vertex="1">
          <mxGeometry y="30" width="287" height="8" as="geometry" />
        </mxCell>
        <mxCell id="zvI14GkoaECBwEuB8T-m-12" value="&lt;i&gt;+ iniciarParking (UserApp app): void&lt;/i&gt;&lt;div&gt;&lt;i&gt;+ finalizarParking(UserApp app): void&lt;/i&gt;&lt;/div&gt;&lt;div&gt;&lt;span style=&quot;background-color: initial;&quot;&gt;+ notificarInicioParkingPosible(UserApp app): void&lt;/span&gt;&lt;br&gt;&lt;/div&gt;" style="text;strokeColor=none;fillColor=none;align=left;verticalAlign=top;spacingLeft=4;spacingRight=4;overflow=hidden;rotatable=0;points=[[0,0.5],[1,0.5]];portConstraint=eastwest;whiteSpace=wrap;html=1;" parent="zvI14GkoaECBwEuB8T-m-10" vertex="1">
          <mxGeometry y="38" width="287" height="62" as="geometry" />
        </mxCell>
        <mxCell id="zvI14GkoaECBwEuB8T-m-14" value="estadoParking" style="text;strokeColor=none;align=center;fillColor=none;html=1;verticalAlign=middle;whiteSpace=wrap;rounded=0;rotation=-90;" parent="WIyWlLk6GJQsqaUBKTNV-1" vertex="1">
          <mxGeometry x="1152" y="1225" width="60" height="30" as="geometry" />
        </mxCell>
        <mxCell id="zvI14GkoaECBwEuB8T-m-16" value="1" style="edgeLabel;html=1;align=center;verticalAlign=middle;resizable=0;points=[];" parent="WIyWlLk6GJQsqaUBKTNV-1" connectable="0" vertex="1">
          <mxGeometry x="1141.0039986023367" y="1519" as="geometry">
            <mxPoint x="41" y="-218" as="offset" />
          </mxGeometry>
        </mxCell>
        <mxCell id="zvI14GkoaECBwEuB8T-m-17" style="edgeStyle=orthogonalEdgeStyle;rounded=0;orthogonalLoop=1;jettySize=auto;html=1;entryX=0.476;entryY=1.097;entryDx=0;entryDy=0;entryPerimeter=0;endArrow=block;endFill=0;" parent="WIyWlLk6GJQsqaUBKTNV-1" source="zvI14GkoaECBwEuB8T-m-10" target="zvI14GkoaECBwEuB8T-m-6" edge="1">
          <mxGeometry relative="1" as="geometry">
            <Array as="points">
              <mxPoint x="1385" y="1510" />
              <mxPoint x="1188" y="1510" />
            </Array>
          </mxGeometry>
        </mxCell>
        <mxCell id="vT0l0-AlsGoeNOCxv10B-0" value="&lt;i&gt;&amp;lt;Interface&amp;gt;&amp;nbsp;&lt;/i&gt;&lt;div&gt;&lt;i&gt;EstadoDeDesplazamiento&lt;/i&gt;&lt;div&gt;&lt;br&gt;&lt;/div&gt;&lt;/div&gt;" style="swimlane;fontStyle=1;align=center;verticalAlign=top;childLayout=stackLayout;horizontal=1;startSize=40;horizontalStack=0;resizeParent=1;resizeParentMax=0;resizeLast=0;collapsible=1;marginBottom=0;whiteSpace=wrap;html=1;" parent="WIyWlLk6GJQsqaUBKTNV-1" vertex="1">
          <mxGeometry x="1794.5" y="1318" width="287" height="90" as="geometry" />
        </mxCell>
        <mxCell id="vT0l0-AlsGoeNOCxv10B-1" value="" style="line;strokeWidth=1;fillColor=none;align=left;verticalAlign=middle;spacingTop=-1;spacingLeft=3;spacingRight=3;rotatable=0;labelPosition=right;points=[];portConstraint=eastwest;strokeColor=inherit;" parent="vT0l0-AlsGoeNOCxv10B-0" vertex="1">
          <mxGeometry y="40" width="287" height="8" as="geometry" />
        </mxCell>
        <mxCell id="vT0l0-AlsGoeNOCxv10B-2" value="&lt;i&gt;+ driving(): void&lt;/i&gt;&lt;div&gt;&lt;i&gt;+ walking(): voiid&lt;/i&gt;&lt;/div&gt;" style="text;strokeColor=none;fillColor=none;align=left;verticalAlign=top;spacingLeft=4;spacingRight=4;overflow=hidden;rotatable=0;points=[[0,0.5],[1,0.5]];portConstraint=eastwest;whiteSpace=wrap;html=1;" parent="vT0l0-AlsGoeNOCxv10B-0" vertex="1">
          <mxGeometry y="48" width="287" height="42" as="geometry" />
        </mxCell>
        <mxCell id="vT0l0-AlsGoeNOCxv10B-3" style="edgeStyle=orthogonalEdgeStyle;rounded=0;orthogonalLoop=1;jettySize=auto;html=1;endArrow=none;endFill=0;dashed=1;" parent="WIyWlLk6GJQsqaUBKTNV-1" source="vT0l0-AlsGoeNOCxv10B-4" edge="1">
          <mxGeometry relative="1" as="geometry">
            <mxPoint x="1943" y="1510" as="targetPoint" />
            <Array as="points">
              <mxPoint x="1714" y="1510" />
              <mxPoint x="1913" y="1510" />
            </Array>
          </mxGeometry>
        </mxCell>
        <mxCell id="vT0l0-AlsGoeNOCxv10B-13" value="implements" style="edgeLabel;html=1;align=center;verticalAlign=middle;resizable=0;points=[];" parent="vT0l0-AlsGoeNOCxv10B-3" connectable="0" vertex="1">
          <mxGeometry x="0.6735" y="2" relative="1" as="geometry">
            <mxPoint x="-67" as="offset" />
          </mxGeometry>
        </mxCell>
        <mxCell id="vT0l0-AlsGoeNOCxv10B-4" value="&lt;div&gt;&lt;div&gt;&lt;i&gt;EstadoConduciendo&lt;/i&gt;&lt;/div&gt;&lt;/div&gt;" style="swimlane;fontStyle=1;align=center;verticalAlign=top;childLayout=stackLayout;horizontal=1;startSize=30;horizontalStack=0;resizeParent=1;resizeParentMax=0;resizeLast=0;collapsible=1;marginBottom=0;whiteSpace=wrap;html=1;" parent="WIyWlLk6GJQsqaUBKTNV-1" vertex="1">
          <mxGeometry x="1570" y="1550" width="287" height="100" as="geometry" />
        </mxCell>
        <mxCell id="vT0l0-AlsGoeNOCxv10B-5" value="" style="line;strokeWidth=1;fillColor=none;align=left;verticalAlign=middle;spacingTop=-1;spacingLeft=3;spacingRight=3;rotatable=0;labelPosition=right;points=[];portConstraint=eastwest;strokeColor=inherit;" parent="vT0l0-AlsGoeNOCxv10B-4" vertex="1">
          <mxGeometry y="30" width="287" height="8" as="geometry" />
        </mxCell>
        <mxCell id="vT0l0-AlsGoeNOCxv10B-6" value="&lt;div&gt;+ driving(): void&lt;/div&gt;&lt;div&gt;&lt;br&gt;&lt;/div&gt;&lt;div&gt;+ walking(): void&lt;/div&gt;" style="text;strokeColor=none;fillColor=none;align=left;verticalAlign=top;spacingLeft=4;spacingRight=4;overflow=hidden;rotatable=0;points=[[0,0.5],[1,0.5]];portConstraint=eastwest;whiteSpace=wrap;html=1;" parent="vT0l0-AlsGoeNOCxv10B-4" vertex="1">
          <mxGeometry y="38" width="287" height="62" as="geometry" />
        </mxCell>
        <mxCell id="vT0l0-AlsGoeNOCxv10B-7" value="&lt;i&gt;EstadoCaminando&lt;/i&gt;" style="swimlane;fontStyle=1;align=center;verticalAlign=top;childLayout=stackLayout;horizontal=1;startSize=30;horizontalStack=0;resizeParent=1;resizeParentMax=0;resizeLast=0;collapsible=1;marginBottom=0;whiteSpace=wrap;html=1;" parent="WIyWlLk6GJQsqaUBKTNV-1" vertex="1">
          <mxGeometry x="1984" y="1550" width="287" height="100" as="geometry" />
        </mxCell>
        <mxCell id="vT0l0-AlsGoeNOCxv10B-8" value="" style="line;strokeWidth=1;fillColor=none;align=left;verticalAlign=middle;spacingTop=-1;spacingLeft=3;spacingRight=3;rotatable=0;labelPosition=right;points=[];portConstraint=eastwest;strokeColor=inherit;" parent="vT0l0-AlsGoeNOCxv10B-7" vertex="1">
          <mxGeometry y="30" width="287" height="8" as="geometry" />
        </mxCell>
        <mxCell id="vT0l0-AlsGoeNOCxv10B-9" value="&lt;div&gt;&lt;div&gt;+ driving(): void&lt;/div&gt;&lt;div&gt;&lt;br&gt;&lt;/div&gt;&lt;div&gt;+ walking(): void&lt;/div&gt;&lt;/div&gt;" style="text;strokeColor=none;fillColor=none;align=left;verticalAlign=top;spacingLeft=4;spacingRight=4;overflow=hidden;rotatable=0;points=[[0,0.5],[1,0.5]];portConstraint=eastwest;whiteSpace=wrap;html=1;" parent="vT0l0-AlsGoeNOCxv10B-7" vertex="1">
          <mxGeometry y="38" width="287" height="62" as="geometry" />
        </mxCell>
        <mxCell id="vT0l0-AlsGoeNOCxv10B-11" style="edgeStyle=orthogonalEdgeStyle;rounded=0;orthogonalLoop=1;jettySize=auto;html=1;entryX=0.476;entryY=1.097;entryDx=0;entryDy=0;entryPerimeter=0;endArrow=block;endFill=0;dashed=1;" parent="WIyWlLk6GJQsqaUBKTNV-1" source="vT0l0-AlsGoeNOCxv10B-7" target="vT0l0-AlsGoeNOCxv10B-2" edge="1">
          <mxGeometry relative="1" as="geometry">
            <Array as="points">
              <mxPoint x="2128" y="1510" />
              <mxPoint x="1931" y="1510" />
            </Array>
          </mxGeometry>
        </mxCell>
        <mxCell id="vT0l0-AlsGoeNOCxv10B-12" value="implements" style="edgeLabel;html=1;align=center;verticalAlign=middle;resizable=0;points=[];" parent="vT0l0-AlsGoeNOCxv10B-11" connectable="0" vertex="1">
          <mxGeometry x="-0.4706" relative="1" as="geometry">
            <mxPoint x="-52" as="offset" />
          </mxGeometry>
        </mxCell>
        <mxCell id="vT0l0-AlsGoeNOCxv10B-14" style="edgeStyle=orthogonalEdgeStyle;rounded=0;orthogonalLoop=1;jettySize=auto;html=1;entryX=-0.002;entryY=0.25;entryDx=0;entryDy=0;entryPerimeter=0;" parent="WIyWlLk6GJQsqaUBKTNV-1" source="K-bu-fXchgahc0BwXCOe-11" target="vT0l0-AlsGoeNOCxv10B-1" edge="1">
          <mxGeometry relative="1" as="geometry" />
        </mxCell>
        <mxCell id="vT0l0-AlsGoeNOCxv10B-15" value="estadoDesplazamiento" style="text;strokeColor=none;align=center;fillColor=none;html=1;verticalAlign=middle;whiteSpace=wrap;rounded=0;rotation=-90;" parent="WIyWlLk6GJQsqaUBKTNV-1" vertex="1">
          <mxGeometry x="1500" y="1235" width="60" height="30" as="geometry" />
        </mxCell>
        <mxCell id="vT0l0-AlsGoeNOCxv10B-17" value="1" style="text;strokeColor=none;align=center;fillColor=none;html=1;verticalAlign=middle;whiteSpace=wrap;rounded=0;rotation=0;" parent="WIyWlLk6GJQsqaUBKTNV-1" vertex="1">
          <mxGeometry x="1745.5" y="1335" width="60" height="30" as="geometry" />
        </mxCell>
        <mxCell id="vT0l0-AlsGoeNOCxv10B-21" value="&lt;div&gt;&lt;div&gt;&lt;i&gt;ParkingViaApp&lt;/i&gt;&lt;/div&gt;&lt;/div&gt;" style="swimlane;fontStyle=1;align=center;verticalAlign=top;childLayout=stackLayout;horizontal=1;startSize=30;horizontalStack=0;resizeParent=1;resizeParentMax=0;resizeLast=0;collapsible=1;marginBottom=0;whiteSpace=wrap;html=1;" parent="WIyWlLk6GJQsqaUBKTNV-1" vertex="1">
          <mxGeometry x="695" y="1050" width="235" height="120" as="geometry" />
        </mxCell>
        <mxCell id="vT0l0-AlsGoeNOCxv10B-23" value="" style="line;strokeWidth=1;fillColor=none;align=left;verticalAlign=middle;spacingTop=-1;spacingLeft=3;spacingRight=3;rotatable=0;labelPosition=right;points=[];portConstraint=eastwest;strokeColor=inherit;" parent="vT0l0-AlsGoeNOCxv10B-21" vertex="1">
          <mxGeometry y="30" width="235" height="8" as="geometry" />
        </mxCell>
        <mxCell id="vT0l0-AlsGoeNOCxv10B-24" value="&lt;div&gt;&lt;i&gt;+ calcularHorasMaximas(): int&lt;/i&gt;&lt;/div&gt;&lt;div&gt;&lt;i&gt;+ calcularHoraDeFin(): LocalDateTime&lt;/i&gt;&lt;/div&gt;&lt;div&gt;&lt;i&gt;+&lt;/i&gt; getApp(): UserApp&lt;br&gt;&lt;/div&gt;" style="text;strokeColor=none;fillColor=none;align=left;verticalAlign=top;spacingLeft=4;spacingRight=4;overflow=hidden;rotatable=0;points=[[0,0.5],[1,0.5]];portConstraint=eastwest;whiteSpace=wrap;html=1;" parent="vT0l0-AlsGoeNOCxv10B-21" vertex="1">
          <mxGeometry y="38" width="235" height="82" as="geometry" />
        </mxCell>
        <mxCell id="vT0l0-AlsGoeNOCxv10B-25" value="&lt;i&gt;&amp;lt;Abstract&amp;gt;&amp;nbsp;&lt;/i&gt;&lt;div&gt;&lt;i&gt;Parking&lt;/i&gt;&lt;div&gt;&lt;br&gt;&lt;/div&gt;&lt;/div&gt;" style="swimlane;fontStyle=1;align=center;verticalAlign=top;childLayout=stackLayout;horizontal=1;startSize=40;horizontalStack=0;resizeParent=1;resizeParentMax=0;resizeLast=0;collapsible=1;marginBottom=0;whiteSpace=wrap;html=1;" parent="WIyWlLk6GJQsqaUBKTNV-1" vertex="1">
          <mxGeometry x="260" y="1047" width="235" height="140" as="geometry" />
        </mxCell>
        <mxCell id="vT0l0-AlsGoeNOCxv10B-26" value="- horasCompradas: int" style="text;strokeColor=none;fillColor=none;align=left;verticalAlign=top;spacingLeft=4;spacingRight=4;overflow=hidden;rotatable=0;points=[[0,0.5],[1,0.5]];portConstraint=eastwest;whiteSpace=wrap;html=1;" parent="vT0l0-AlsGoeNOCxv10B-25" vertex="1">
          <mxGeometry y="40" width="235" height="30" as="geometry" />
        </mxCell>
        <mxCell id="vT0l0-AlsGoeNOCxv10B-27" value="" style="line;strokeWidth=1;fillColor=none;align=left;verticalAlign=middle;spacingTop=-1;spacingLeft=3;spacingRight=3;rotatable=0;labelPosition=right;points=[];portConstraint=eastwest;strokeColor=inherit;" parent="vT0l0-AlsGoeNOCxv10B-25" vertex="1">
          <mxGeometry y="70" width="235" height="8" as="geometry" />
        </mxCell>
        <mxCell id="vT0l0-AlsGoeNOCxv10B-28" value="&lt;div&gt;&lt;i&gt;+ calcularHorasMaximas(): int&lt;/i&gt;&lt;/div&gt;&lt;div&gt;&lt;i&gt;+ calcularHoraDeFin(): LocalDateTime&lt;/i&gt;&lt;/div&gt;&lt;div&gt;&lt;br&gt;&lt;/div&gt;" style="text;strokeColor=none;fillColor=none;align=left;verticalAlign=top;spacingLeft=4;spacingRight=4;overflow=hidden;rotatable=0;points=[[0,0.5],[1,0.5]];portConstraint=eastwest;whiteSpace=wrap;html=1;" parent="vT0l0-AlsGoeNOCxv10B-25" vertex="1">
          <mxGeometry y="78" width="235" height="62" as="geometry" />
        </mxCell>
        <mxCell id="vT0l0-AlsGoeNOCxv10B-29" value="InspectorApp" style="swimlane;fontStyle=1;align=center;verticalAlign=top;childLayout=stackLayout;horizontal=1;startSize=26;horizontalStack=0;resizeParent=1;resizeParentMax=0;resizeLast=0;collapsible=1;marginBottom=0;whiteSpace=wrap;html=1;" parent="WIyWlLk6GJQsqaUBKTNV-1" vertex="1">
          <mxGeometry x="-55" y="640" width="270" height="190" as="geometry" />
        </mxCell>
        <mxCell id="vT0l0-AlsGoeNOCxv10B-30" value="&lt;div&gt;- inspector: Inspector&lt;/div&gt;- system: SEMSystem" style="text;strokeColor=none;fillColor=none;align=left;verticalAlign=top;spacingLeft=4;spacingRight=4;overflow=hidden;rotatable=0;points=[[0,0.5],[1,0.5]];portConstraint=eastwest;whiteSpace=wrap;html=1;" parent="vT0l0-AlsGoeNOCxv10B-29" vertex="1">
          <mxGeometry y="26" width="270" height="44" as="geometry" />
        </mxCell>
        <mxCell id="vT0l0-AlsGoeNOCxv10B-31" value="" style="line;strokeWidth=1;fillColor=none;align=left;verticalAlign=middle;spacingTop=-1;spacingLeft=3;spacingRight=3;rotatable=0;labelPosition=right;points=[];portConstraint=eastwest;strokeColor=inherit;" parent="vT0l0-AlsGoeNOCxv10B-29" vertex="1">
          <mxGeometry y="70" width="270" height="8" as="geometry" />
        </mxCell>
        <mxCell id="vT0l0-AlsGoeNOCxv10B-32" value="+ checkParking(patente): void&lt;div&gt;+ issueFine(patente, zona):void&lt;/div&gt;&lt;div&gt;&lt;br&gt;&lt;/div&gt;" style="text;strokeColor=none;fillColor=none;align=left;verticalAlign=top;spacingLeft=4;spacingRight=4;overflow=hidden;rotatable=0;points=[[0,0.5],[1,0.5]];portConstraint=eastwest;whiteSpace=wrap;html=1;" parent="vT0l0-AlsGoeNOCxv10B-29" vertex="1">
          <mxGeometry y="78" width="270" height="112" as="geometry" />
        </mxCell>
      </root>
    </mxGraphModel>
  </diagram>
</mxfile>
